<svg fill="none" height="24" viewBox="0 0 24 24" width="24" xmlns="http://www.w3.org/2000/svg"><path d="m22 16.19c0 3.64-2.17 5.81-5.81 5.81h-1.19c-.55 0-1-.45-1-1v-5.77c0-.27.22-.5.49-.5l1.76-.03c.14-.01.26-.11.29-.25l.35-1.91c.03-.18-.11-.35-.3-.35l-2.13.03c-.28 0-.5-.22-.51-.49l-.04-2.45c0-.16.13-.29999.3-.29999l2.4-.04001c.17 0 .3-.12999.3-.29999l-.04-2.40002c0-.17-.13-.29999-.3-.29999l-2.7.04001c-1.66.03-2.98 1.38999-2.95 3.04999l.05 2.75c.01.28-.21.5-.49.51l-1.2.02c-.17 0-.29999.13-.29999.3l.03 1.9c0 .17.12999.3.29999.3l1.2-.02c.28 0 .5.22.51.49l.09 5.7c.01.56-.44 1.02-1 1.02h-2.3c-3.64 0-5.81-2.17-5.81-5.82v-8.37c0-3.64 2.17-5.81 5.81-5.81h8.38c3.64 0 5.81 2.17 5.81 5.81z" fill="#000"/></svg>